<svg width="27" height="27" viewBox="0 0 27 27" fill="none" xmlns="http://www.w3.org/2000/svg">
<path d="M14.7823 11.5434C15.1322 11.1617 15.4185 10.7481 15.8002 10.3984C16.9134 9.34864 18.2175 8.80802 19.7759 8.83983C20.6348 8.83983 21.4617 8.90345 22.2568 9.15793C24.1334 9.69855 25.2148 10.9708 25.7237 12.8157C26.1054 14.1833 26.169 15.5827 26.2008 16.9822C26.2008 19.9402 26.2008 22.8981 26.2008 25.888C26.2008 26.1743 26.1372 26.2379 25.8509 26.2379C24.3243 26.2379 22.7976 26.2379 21.2708 26.2379C21.0163 26.2379 20.9527 26.1425 20.9527 25.888C20.9527 23.0572 20.9527 20.2583 20.9527 17.4275C20.9527 16.7277 20.9209 16.028 20.6984 15.3284C20.3485 14.0561 19.4261 13.4199 18.0903 13.4835C16.2772 13.5789 15.3231 14.4695 15.1004 16.3143C15.0368 16.7595 15.005 17.2049 15.005 17.6502C15.005 20.3854 15.005 23.1526 15.005 25.888C15.005 26.1743 14.9413 26.2379 14.6552 26.2379C13.1285 26.2379 11.5699 26.2379 10.0432 26.2379C9.78868 26.2379 9.72522 26.1743 9.72522 25.9198C9.72522 20.4809 9.72522 15.0421 9.72522 9.60312C9.72522 9.34864 9.8205 9.28517 10.075 9.28517C11.5381 9.28517 13.0012 9.28517 14.4643 9.28517C14.7187 9.28517 14.8141 9.38045 14.7823 9.63493C14.7823 10.2393 14.7823 10.8754 14.7823 11.5434Z" fill="white"/>
<path d="M6.41779 17.7452C6.41779 20.4488 6.41779 23.1205 6.41779 25.8241C6.41779 26.1102 6.35417 26.2057 6.03611 26.2057C4.5094 26.1739 2.98271 26.2057 1.456 26.2057C1.20154 26.2057 1.13794 26.142 1.13794 25.8877C1.13794 20.4488 1.13794 15.01 1.13794 9.57103C1.13794 9.34836 1.20154 9.25293 1.42419 9.25293C2.98271 9.25293 4.5094 9.25293 6.06791 9.25293C6.35417 9.25293 6.41779 9.38017 6.41779 9.63465C6.41779 12.3382 6.41779 15.0418 6.41779 17.7452Z" fill="white"/>
<path d="M6.83114 3.84612C6.83114 5.53187 5.4635 6.89952 3.77777 6.89952C2.12383 6.89952 0.724365 5.53187 0.724365 3.87793C0.724365 2.1922 2.09202 0.824524 3.77777 0.824524C5.4635 0.824524 6.83114 2.1922 6.83114 3.84612Z" fill="white"/>
</svg>
