<svg width="29" height="29" viewBox="0 0 29 29" fill="none" xmlns="http://www.w3.org/2000/svg">
<rect x="0.560394" y="0.724609" width="27.6715" height="27.6715" rx="13.8357" fill="#9D5928"/>
<path d="M14.4039 7.95453C16.5468 7.95453 16.8123 7.95453 17.6656 7.99258C18.4431 8.03063 18.8793 8.16381 19.1638 8.27797C19.543 8.43018 19.8085 8.60141 20.093 8.8868C20.3774 9.17219 20.5481 9.43856 20.6998 9.81908C20.8136 10.1045 20.9463 10.523 20.9843 11.3221C21.0222 12.1783 21.0222 12.4256 21.0222 14.5946C21.0222 16.7636 21.0222 17.0109 20.9843 17.8671C20.9463 18.6472 20.8136 19.0848 20.6998 19.3702C20.5481 19.7507 20.3774 20.017 20.093 20.3024C19.8085 20.5878 19.543 20.7591 19.1638 20.9113C18.8793 21.0254 18.4621 21.1586 17.6656 21.1967C16.8123 21.2347 16.5658 21.2347 14.4039 21.2347C12.2611 21.2347 11.9956 21.2347 11.1422 21.1967C10.3647 21.1586 9.92855 21.0254 9.6441 20.9113C9.26483 20.7591 8.99934 20.5878 8.71489 20.3024C8.43043 20.017 8.25976 19.7507 8.10805 19.3702C7.99427 19.0848 7.86153 18.6662 7.8236 17.8671C7.78568 17.0109 7.78568 16.7636 7.78568 14.5946C7.78568 12.4256 7.78568 12.1783 7.8236 11.3221C7.86153 10.5421 7.99427 10.1045 8.10805 9.81908C8.25976 9.43856 8.43043 9.17219 8.71489 8.8868C8.99934 8.60141 9.26483 8.43018 9.6441 8.27797C9.92855 8.16381 10.3457 8.03063 11.1422 7.99258C11.9956 7.97355 12.2421 7.95453 14.4039 7.95453ZM14.4039 6.50854C12.2231 6.50854 11.9387 6.50855 11.0853 6.56562C10.232 6.60368 9.6441 6.73686 9.13208 6.94614C8.60111 7.15543 8.14598 7.4218 7.70982 7.87842C7.2547 8.33505 6.98921 8.77265 6.78061 9.30537C6.57201 9.81908 6.43927 10.4089 6.40134 11.2651C6.36342 12.1212 6.34445 12.4066 6.34445 14.5946C6.34445 16.7826 6.34445 17.068 6.40134 17.9242C6.43927 18.7804 6.57201 19.3702 6.78061 19.8839C6.98921 20.4166 7.2547 20.8732 7.70982 21.3108C8.16495 21.7674 8.60111 22.0338 9.13208 22.2431C9.6441 22.4524 10.232 22.5856 11.0853 22.6236C11.9387 22.6617 12.2231 22.6807 14.4039 22.6807C16.5847 22.6807 16.8692 22.6807 17.7225 22.6236C18.5759 22.5856 19.1638 22.4524 19.6758 22.2431C20.2067 22.0338 20.6619 21.7674 21.098 21.3108C21.5532 20.8542 21.8186 20.4166 22.0272 19.8839C22.2358 19.3702 22.3686 18.7804 22.4065 17.9242C22.4444 17.068 22.4634 16.7826 22.4634 14.5946C22.4634 12.4066 22.4634 12.1212 22.4065 11.2651C22.3686 10.4089 22.2358 9.81908 22.0272 9.30537C21.8186 8.77265 21.5532 8.31602 21.098 7.87842C20.6429 7.4218 20.2067 7.15543 19.6758 6.94614C19.1638 6.73686 18.5759 6.60368 17.7225 6.56562C16.8502 6.50855 16.5847 6.50854 14.4039 6.50854Z" fill="white"/>
<path d="M14.4038 10.4473C12.1092 10.4473 10.2697 12.3118 10.2697 14.5949C10.2697 16.8781 12.1092 18.7426 14.4038 18.7426C16.6984 18.7426 18.5378 16.8781 18.5378 14.5949C18.5378 12.3118 16.6794 10.4473 14.4038 10.4473ZM14.4038 17.2966C12.9246 17.2966 11.711 16.098 11.711 14.5949C11.711 13.0919 12.9057 11.8932 14.4038 11.8932C15.9019 11.8932 17.0966 13.0919 17.0966 14.5949C17.0966 16.098 15.8829 17.2966 14.4038 17.2966Z" fill="white"/>
<path d="M18.6893 11.2461C19.2234 11.2461 19.6564 10.8116 19.6564 10.2757C19.6564 9.73985 19.2234 9.30542 18.6893 9.30542C18.1552 9.30542 17.7222 9.73985 17.7222 10.2757C17.7222 10.8116 18.1552 11.2461 18.6893 11.2461Z" fill="white"/>
</svg>
