<svg width="26" height="26" viewBox="0 0 26 26" fill="none" xmlns="http://www.w3.org/2000/svg">
<path d="M13.3509 2.34326C16.6761 2.34326 17.0881 2.34326 18.4121 2.40231C19.6186 2.46135 20.2955 2.66801 20.7369 2.84515C21.3254 3.08134 21.7373 3.34704 22.1788 3.78989C22.6201 4.23274 22.885 4.64607 23.1204 5.23653C23.297 5.67943 23.5029 6.32882 23.5619 7.5688C23.6207 8.89739 23.6207 9.28113 23.6207 12.6468C23.6207 16.0125 23.6207 16.3963 23.5619 17.7248C23.5029 18.9353 23.297 19.6144 23.1204 20.0572C22.885 20.6477 22.6201 21.0609 22.1788 21.5038C21.7373 21.9466 21.3254 22.2124 20.7369 22.4486C20.2955 22.6256 19.6481 22.8323 18.4121 22.8915C17.0881 22.9504 16.7056 22.9504 13.3509 22.9504C10.0259 22.9504 9.61387 22.9504 8.28963 22.8915C7.08317 22.8323 6.40638 22.6256 5.965 22.4486C5.37647 22.2124 4.9645 21.9466 4.52312 21.5038C4.08171 21.0609 3.81688 20.6477 3.58147 20.0572C3.40491 19.6144 3.19894 18.9648 3.14008 17.7248C3.08124 16.3963 3.08124 16.0125 3.08124 12.6468C3.08124 9.28113 3.08124 8.89739 3.14008 7.5688C3.19894 6.35846 3.40491 5.67943 3.58147 5.23653C3.81688 4.64607 4.08171 4.23274 4.52312 3.78989C4.9645 3.34704 5.37647 3.08134 5.965 2.84515C6.40638 2.66801 7.05369 2.46135 8.28963 2.40231C9.61387 2.37278 9.99637 2.34326 13.3509 2.34326ZM13.3509 0.0994873C9.96689 0.0994873 9.52558 0.0995025 8.20134 0.188059C6.87725 0.247118 5.965 0.453776 5.17048 0.778521C4.34656 1.10328 3.64033 1.51661 2.96353 2.22516C2.25731 2.93373 1.84534 3.61276 1.52165 4.4394C1.19796 5.23653 0.991983 6.15177 0.933126 7.48036C0.874285 8.80879 0.844849 9.25165 0.844849 12.6468C0.844849 16.042 0.844849 16.4849 0.933126 17.8134C0.991983 19.142 1.19796 20.0572 1.52165 20.8544C1.84534 21.681 2.25731 22.3895 2.96353 23.0685C3.66976 23.777 4.34656 24.1904 5.17048 24.5152C5.965 24.84 6.87725 25.0466 8.20134 25.1056C9.52558 25.1647 9.96689 25.1942 13.3509 25.1942C16.7349 25.1942 17.1764 25.1942 18.5004 25.1056C19.8247 25.0466 20.7369 24.84 21.5314 24.5152C22.3552 24.1904 23.0616 23.777 23.7383 23.0685C24.4446 22.36 24.8565 21.681 25.1802 20.8544C25.5038 20.0572 25.7099 19.142 25.7687 17.8134C25.8275 16.4849 25.857 16.042 25.857 12.6468C25.857 9.25165 25.857 8.80879 25.7687 7.48036C25.7099 6.15177 25.5038 5.23653 25.1802 4.4394C24.8565 3.61276 24.4446 2.9042 23.7383 2.22516C23.0321 1.51661 22.3552 1.10328 21.5314 0.778521C20.7369 0.453776 19.8247 0.247118 18.5004 0.188059C17.1469 0.0995025 16.7349 0.0994873 13.3509 0.0994873Z" fill="white"/>
<path d="M13.3508 6.2113C9.79019 6.2113 6.93579 9.10449 6.93579 12.6472C6.93579 16.1901 9.79019 19.0833 13.3508 19.0833C16.9114 19.0833 19.7656 16.1901 19.7656 12.6472C19.7656 9.10449 16.8819 6.2113 13.3508 6.2113ZM13.3508 16.8395C11.0555 16.8395 9.17229 14.9796 9.17229 12.6472C9.17229 10.315 11.0261 8.45494 13.3508 8.45494C15.6754 8.45494 17.5293 10.315 17.5293 12.6472C17.5293 14.9796 15.6459 16.8395 13.3508 16.8395Z" fill="white"/>
<path d="M20.0007 7.45085C20.8294 7.45085 21.5013 6.77663 21.5013 5.94506C21.5013 5.11357 20.8294 4.43945 20.0007 4.43945C19.1719 4.43945 18.5 5.11357 18.5 5.94506C18.5 6.77663 19.1719 7.45085 20.0007 7.45085Z" fill="white"/>
</svg>
