<svg width="29" height="28" viewBox="0 0 29 28" fill="none" xmlns="http://www.w3.org/2000/svg">
<path d="M14.3961 27.715C22.0374 27.715 28.2319 21.5205 28.2319 13.8792C28.2319 6.23793 22.0374 0.043457 14.3961 0.043457C6.75487 0.043457 0.560394 6.23793 0.560394 13.8792C0.560394 21.5205 6.75487 27.715 14.3961 27.715Z" fill="#9D5928"/>
<path fill-rule="evenodd" clip-rule="evenodd" d="M21.0579 7.40201C19.3976 5.74172 17.2044 4.83983 14.8472 4.81934C10.0098 4.81934 6.0743 8.75484 6.0743 13.5922C6.0743 15.1295 6.48425 16.6463 7.24265 17.9787L5.99231 22.5291L10.6452 21.2992C11.9366 21.9962 13.3714 22.3651 14.8472 22.3651C19.6846 22.3651 23.6201 18.4296 23.6201 13.5922C23.6201 11.2555 22.7182 9.0623 21.0579 7.40201ZM14.8472 20.8893C13.5354 20.8893 12.244 20.5408 11.1372 19.8644L10.8707 19.721L8.10354 20.4384L8.84145 17.7532L8.65697 17.4662C7.91907 16.2979 7.55011 14.9656 7.55011 13.5922C7.55011 9.57473 10.8297 6.29515 14.8472 6.29515C16.7944 6.29515 18.6187 7.05355 20.0125 8.42688C21.3859 9.80021 22.1443 11.645 22.1443 13.5922C22.1443 17.6302 18.8647 20.8893 14.8472 20.8893ZM18.8442 15.437C18.6187 15.3345 17.5528 14.8016 17.3479 14.7196C17.1429 14.6376 16.9994 14.6171 16.8559 14.8221C16.7125 15.0475 16.282 15.5395 16.159 15.683C16.036 15.8264 15.9131 15.8469 15.6876 15.7445C15.4621 15.642 14.7652 15.396 13.9248 14.6581C13.2689 14.0842 12.8384 13.3668 12.695 13.1413C12.572 12.9158 12.6745 12.8133 12.7975 12.6903C12.8999 12.5879 13.0229 12.4444 13.1254 12.3009C13.2279 12.1779 13.2689 12.0754 13.3509 11.9319C13.4329 11.7885 13.3919 11.6655 13.3304 11.5425C13.2689 11.44 12.8384 10.3536 12.654 9.92319C12.4695 9.49274 12.285 9.55424 12.162 9.55424C12.039 9.55424 11.8956 9.55424 11.7316 9.55424C11.5881 9.55424 11.3421 9.61573 11.1372 9.8207C10.9322 10.0462 10.3788 10.5791 10.3788 11.645C10.3788 12.7313 11.1577 13.7767 11.2806 13.9202C11.3831 14.0637 12.8179 16.2774 15.0317 17.2408C15.5646 17.4662 15.9541 17.6097 16.282 17.7122C16.8149 17.8762 17.2864 17.8557 17.6553 17.7942C18.0858 17.7327 18.9467 17.2613 19.1312 16.7488C19.3156 16.2364 19.3156 15.8059 19.2541 15.7035C19.2131 15.601 19.0697 15.5395 18.8442 15.437Z" fill="white"/>
</svg>
