<svg width="29" height="28" viewBox="0 0 29 28" fill="none" xmlns="http://www.w3.org/2000/svg">
<path d="M14.2609 27.6715C21.9021 27.6715 28.0966 21.477 28.0966 13.8357C28.0966 6.19448 21.9021 0 14.2609 0C6.61959 0 0.42511 6.19448 0.42511 13.8357C0.42511 21.477 6.61959 27.6715 14.2609 27.6715Z" fill="#9D5928"/>
<path d="M15.3264 11.9502C15.5519 11.7042 15.7364 11.4377 15.9824 11.2123C16.6998 10.5358 17.5402 10.1874 18.5445 10.2079C19.098 10.2079 19.6309 10.2489 20.1433 10.4129C21.3527 10.7613 22.0496 11.5812 22.3775 12.7701C22.6235 13.6515 22.6645 14.5533 22.685 15.4552C22.685 17.3615 22.685 19.2677 22.685 21.1945C22.685 21.379 22.644 21.42 22.4595 21.42C21.4757 21.42 20.4918 21.42 19.5079 21.42C19.3439 21.42 19.3029 21.3585 19.3029 21.1945C19.3029 19.3702 19.3029 17.5665 19.3029 15.7422C19.3029 15.2912 19.2824 14.8403 19.139 14.3894C18.9135 13.5695 18.3191 13.1595 17.4582 13.2005C16.2898 13.262 15.6749 13.8359 15.5314 15.0248C15.4904 15.3117 15.4699 15.5987 15.4699 15.8857C15.4699 17.6484 15.4699 19.4317 15.4699 21.1945C15.4699 21.379 15.4289 21.42 15.2445 21.42C14.2606 21.42 13.2562 21.42 12.2723 21.42C12.1083 21.42 12.0674 21.379 12.0674 21.215C12.0674 17.7099 12.0674 14.2049 12.0674 10.6998C12.0674 10.5358 12.1288 10.4949 12.2928 10.4949C13.2357 10.4949 14.1786 10.4949 15.1215 10.4949C15.2854 10.4949 15.3469 10.5563 15.3264 10.7203C15.3264 11.1098 15.3264 11.5197 15.3264 11.9502Z" fill="white"/>
<path d="M9.93593 15.9469C9.93593 17.6892 9.93593 19.411 9.93593 21.1533C9.93593 21.3377 9.89493 21.3992 9.68996 21.3992C8.70608 21.3787 7.72221 21.3992 6.73833 21.3992C6.57435 21.3992 6.53336 21.3582 6.53336 21.1943C6.53336 17.6892 6.53336 14.1842 6.53336 10.6791C6.53336 10.5356 6.57435 10.4741 6.71783 10.4741C7.72221 10.4741 8.70608 10.4741 9.71045 10.4741C9.89493 10.4741 9.93593 10.5561 9.93593 10.7201C9.93593 12.4624 9.93593 14.2047 9.93593 15.9469Z" fill="white"/>
<path d="M10.2023 6.98973C10.2023 8.0761 9.32093 8.95748 8.23457 8.95748C7.1687 8.95748 6.26682 8.0761 6.26682 7.01023C6.26682 5.92387 7.1482 5.04248 8.23457 5.04248C9.32093 5.04248 10.2023 5.92387 10.2023 6.98973Z" fill="white"/>
</svg>
