<svg width="28" height="29" viewBox="0 0 28 29" fill="none" xmlns="http://www.w3.org/2000/svg">
<path fill-rule="evenodd" clip-rule="evenodd" d="M23.6761 4.63172C21.0998 2.0227 17.6965 0.605441 14.0388 0.573242C6.5325 0.573242 0.425687 6.7576 0.425687 14.3592C0.425687 16.7749 1.06182 19.1585 2.23864 21.2522L0.298462 28.4029L7.51846 26.4702C9.52236 27.5655 11.7488 28.1452 14.0388 28.1452C21.5451 28.1452 27.6519 21.9608 27.6519 14.3592C27.6519 10.6872 26.2524 7.24075 23.6761 4.63172ZM14.0388 25.826C12.0033 25.826 9.99936 25.2784 8.28191 24.2155L7.86838 23.9901L3.57451 25.1175L4.71954 20.8979L4.43328 20.4469C3.28826 18.611 2.71574 16.5174 2.71574 14.3592C2.71574 8.046 7.80476 2.89237 14.0388 2.89237C17.0603 2.89237 19.8911 4.08414 22.0539 6.24223C24.1851 8.40032 25.3619 11.2993 25.3619 14.3592C25.3619 20.7046 20.2729 25.826 14.0388 25.826ZM20.2411 17.2581C19.8911 17.0971 18.2372 16.2596 17.9192 16.1308C17.6011 16.0019 17.3784 15.9697 17.1558 16.2919C16.9332 16.6461 16.2652 17.4192 16.0744 17.6447C15.8835 17.87 15.6928 17.9023 15.3429 17.7413C14.993 17.5803 13.9116 17.1937 12.6075 16.0342C11.5897 15.1323 10.9217 14.005 10.6992 13.6506C10.5083 13.2963 10.6674 13.1352 10.8582 12.9419C11.0171 12.781 11.208 12.5555 11.367 12.33C11.5261 12.1367 11.5897 11.9756 11.717 11.7501C11.8442 11.5248 11.7806 11.3315 11.6852 11.1382C11.5897 10.9771 10.9217 9.26994 10.6356 8.59358C10.3493 7.91716 10.063 8.0138 9.87212 8.0138C9.68126 8.0138 9.45874 8.0138 9.20426 8.0138C8.98158 8.0138 8.59986 8.11043 8.28191 8.43252C7.96381 8.78688 7.10509 9.62429 7.10509 11.2993C7.10509 13.0063 8.31372 14.6491 8.50443 14.8746C8.66348 15.1001 10.8899 18.5788 14.3251 20.0927C15.152 20.4469 15.7564 20.6724 16.2652 20.8335C17.0921 21.0912 17.8238 21.059 18.3962 20.9623C19.0642 20.8657 20.4001 20.1249 20.6864 19.3195C20.9725 18.5143 20.9725 17.8378 20.8771 17.6769C20.8135 17.5158 20.591 17.4192 20.2411 17.2581Z" fill="white"/>
</svg>
