<svg width="175" height="129" viewBox="0 0 175 129" fill="none" xmlns="http://www.w3.org/2000/svg">
<path d="M1.404 109V96.112H6.642C7.842 96.112 8.772 96.412 9.432 97.012C10.116 97.636 10.458 98.428 10.458 99.388C10.458 100.708 9.858 101.644 8.658 102.196C10.23 102.796 11.016 103.84 11.016 105.328C11.016 106.36 10.686 107.224 10.026 107.92C9.342 108.64 8.4 109 7.2 109H1.404ZM3.042 101.656H6.228C7.068 101.656 7.692 101.506 8.1 101.206C8.568 100.858 8.802 100.33 8.802 99.622C8.802 98.914 8.568 98.38 8.1 98.02C7.692 97.72 7.068 97.57 6.228 97.57H3.042V101.656ZM3.042 107.542H7.056C7.788 107.542 8.358 107.35 8.766 106.966C9.174 106.57 9.378 106.024 9.378 105.328C9.378 104.632 9.174 104.092 8.766 103.708C8.358 103.312 7.788 103.114 7.056 103.114H3.042V107.542ZM20.6509 103.456V109H19.0129V96.112H24.9349C26.3029 96.112 27.3229 96.448 27.9949 97.12C28.5829 97.708 28.8769 98.524 28.8769 99.568C28.8769 100.3 28.7149 100.906 28.3909 101.386C28.0789 101.866 27.5569 102.286 26.8249 102.646C27.4129 102.874 27.8449 103.18 28.1209 103.564C28.3969 103.96 28.5529 104.77 28.5889 105.994C28.6129 106.894 28.6669 107.5 28.7509 107.812C28.8469 108.112 29.0509 108.37 29.3629 108.586V109H27.3829C27.1189 108.448 26.9869 107.866 26.9869 107.254L27.0049 105.238C27.0049 105.106 26.9509 104.902 26.8429 104.626C26.7349 104.35 26.6329 104.152 26.5369 104.032C26.2129 103.648 25.6609 103.456 24.8809 103.456H20.6509ZM20.6509 101.998H24.6289C26.3209 101.998 27.1669 101.26 27.1669 99.784C27.1669 98.308 26.3209 97.57 24.6289 97.57H20.6509V101.998ZM45.4726 96.112H47.1106V104.95C47.1106 106.342 46.6006 107.422 45.5806 108.19C44.7046 108.862 43.5586 109.198 42.1426 109.198C40.5106 109.198 39.2506 108.772 38.3626 107.92C37.5946 107.164 37.2106 106.174 37.2106 104.95V96.112H38.8486V104.95C38.8486 105.838 39.1366 106.528 39.7126 107.02C40.2886 107.5 41.0986 107.74 42.1426 107.74C43.2466 107.74 44.0986 107.464 44.6986 106.912C45.2146 106.42 45.4726 105.766 45.4726 104.95V96.112ZM65.4704 96.112V109H63.6344L56.9564 98.542V109H55.4084V96.112H57.1904L63.9224 106.642V96.112H65.4704ZM80.7881 105.13H75.8201L74.4521 109H72.7061L77.2961 96.112H79.4201L83.9381 109H82.1201L80.7881 105.13ZM80.3201 103.744L78.3401 97.894L76.2341 103.744H80.3201ZM108.398 103.132H101.756V109H100.118V96.112H101.756V101.674H108.398V96.112H110.036V109H108.398V103.132ZM123.895 95.914C125.887 95.914 127.459 96.604 128.611 97.984C129.607 99.184 130.105 100.708 130.105 102.556C130.105 104.68 129.463 106.36 128.179 107.596C127.051 108.664 125.623 109.198 123.895 109.198C121.891 109.198 120.313 108.508 119.161 107.128C118.165 105.928 117.667 104.404 117.667 102.556C117.667 100.432 118.315 98.752 119.611 97.516C120.727 96.448 122.155 95.914 123.895 95.914ZM123.877 97.372C122.413 97.372 121.255 97.906 120.403 98.974C119.671 99.91 119.305 101.104 119.305 102.556C119.305 104.224 119.779 105.538 120.727 106.498C121.555 107.326 122.605 107.74 123.877 107.74C125.353 107.74 126.517 107.206 127.369 106.138C128.101 105.202 128.467 104.008 128.467 102.556C128.467 100.888 127.993 99.574 127.045 98.614C126.217 97.786 125.161 97.372 123.877 97.372ZM146.858 99.82H145.309C145.273 98.14 144.199 97.3 142.087 97.3C141.223 97.3 140.527 97.498 139.999 97.894C139.471 98.278 139.207 98.788 139.207 99.424C139.207 99.904 139.363 100.288 139.675 100.576C139.999 100.852 140.551 101.092 141.331 101.296L144.391 102.088C146.335 102.604 147.307 103.684 147.307 105.328C147.307 106.516 146.833 107.482 145.885 108.226C145.045 108.874 143.839 109.198 142.267 109.198C140.275 109.198 138.829 108.598 137.929 107.398C137.449 106.75 137.197 105.88 137.173 104.788H138.721V104.824C138.721 105.76 139.039 106.486 139.675 107.002C140.323 107.506 141.223 107.758 142.375 107.758C143.431 107.758 144.217 107.584 144.733 107.236C145.345 106.816 145.651 106.228 145.651 105.472C145.651 104.512 144.865 103.834 143.293 103.438L140.089 102.61C138.409 102.178 137.569 101.188 137.569 99.64C137.569 98.416 138.031 97.468 138.955 96.796C139.759 96.208 140.821 95.914 142.141 95.914C144.013 95.914 145.351 96.46 146.155 97.552C146.623 98.188 146.858 98.878 146.858 99.622C146.858 99.658 146.858 99.724 146.858 99.82ZM159.966 97.57V109H158.328V97.57H154.08V96.112H164.178V97.57H159.966ZM173.513 96.112V109H171.839V96.112H173.513Z" fill="white"/>
<path d="M51.611 124.066V127H50.792V120.556H55.112V121.285H51.611V123.337H54.689V124.066H51.611ZM61.4535 120.457C62.4495 120.457 63.2355 120.802 63.8115 121.492C64.3095 122.092 64.5585 122.854 64.5585 123.778C64.5585 124.84 64.2375 125.68 63.5955 126.298C63.0315 126.832 62.3175 127.099 61.4535 127.099C60.4515 127.099 59.6625 126.754 59.0865 126.064C58.5885 125.464 58.3395 124.702 58.3395 123.778C58.3395 122.716 58.6635 121.876 59.3115 121.258C59.8695 120.724 60.5835 120.457 61.4535 120.457ZM61.4445 121.186C60.7125 121.186 60.1335 121.453 59.7075 121.987C59.3415 122.455 59.1585 123.052 59.1585 123.778C59.1585 124.612 59.3955 125.269 59.8695 125.749C60.2835 126.163 60.8085 126.37 61.4445 126.37C62.1825 126.37 62.7645 126.103 63.1905 125.569C63.5565 125.101 63.7395 124.504 63.7395 123.778C63.7395 122.944 63.5025 122.287 63.0285 121.807C62.6145 121.393 62.0865 121.186 61.4445 121.186ZM70.6215 121.285V127H69.8025V121.285H67.6785V120.556H72.7275V121.285H70.6215ZM79.195 118.702H80.185L78.871 120.007H78.34L79.195 118.702ZM78.943 120.457C79.939 120.457 80.725 120.802 81.301 121.492C81.799 122.092 82.048 122.854 82.048 123.778C82.048 124.84 81.727 125.68 81.085 126.298C80.521 126.832 79.807 127.099 78.943 127.099C77.941 127.099 77.152 126.754 76.576 126.064C76.078 125.464 75.829 124.702 75.829 123.778C75.829 122.716 76.153 121.876 76.801 121.258C77.359 120.724 78.073 120.457 78.943 120.457ZM78.934 121.186C78.202 121.186 77.623 121.453 77.197 121.987C76.831 122.455 76.648 123.052 76.648 123.778C76.648 124.612 76.885 125.269 77.359 125.749C77.773 126.163 78.298 126.37 78.934 126.37C79.672 126.37 80.254 126.103 80.68 125.569C81.046 125.101 81.229 124.504 81.229 123.778C81.229 122.944 80.992 122.287 80.518 121.807C80.104 121.393 79.576 121.186 78.934 121.186ZM91.2431 123.607V127H90.7211L90.5141 126.091C89.9021 126.763 89.1701 127.099 88.3181 127.099C87.3821 127.099 86.6381 126.754 86.0861 126.064C85.6061 125.458 85.3661 124.702 85.3661 123.796C85.3661 122.614 85.7531 121.705 86.5271 121.069C87.0311 120.661 87.6761 120.457 88.4621 120.457C89.3921 120.457 90.1061 120.739 90.6041 121.303C90.8741 121.609 91.0571 122.005 91.1531 122.491H90.3161C90.2261 122.083 90.0161 121.765 89.6861 121.537C89.3561 121.303 88.9421 121.186 88.4441 121.186C87.7181 121.186 87.1451 121.45 86.7251 121.978C86.3651 122.44 86.1851 123.031 86.1851 123.751C86.1851 124.591 86.4131 125.254 86.8691 125.74C87.2651 126.16 87.8081 126.37 88.4981 126.37C89.1221 126.37 89.6261 126.166 90.0101 125.758C90.3461 125.398 90.5141 124.96 90.5141 124.444V124.336H88.5521V123.607H91.2431ZM96.1001 124.228V127H95.2811V120.556H98.2421C98.9261 120.556 99.4361 120.724 99.7721 121.06C100.066 121.354 100.213 121.762 100.213 122.284C100.213 122.65 100.132 122.953 99.9701 123.193C99.8141 123.433 99.5531 123.643 99.1871 123.823C99.4811 123.937 99.6971 124.09 99.8351 124.282C99.9731 124.48 100.051 124.885 100.069 125.497C100.081 125.947 100.108 126.25 100.15 126.406C100.198 126.556 100.3 126.685 100.456 126.793V127H99.4661C99.3341 126.724 99.2681 126.433 99.2681 126.127L99.2771 125.119C99.2771 125.053 99.2501 124.951 99.1961 124.813C99.1421 124.675 99.0911 124.576 99.0431 124.516C98.8811 124.324 98.6051 124.228 98.2151 124.228H96.1001ZM96.1001 123.499H98.0891C98.9351 123.499 99.3581 123.13 99.3581 122.392C99.3581 121.654 98.9351 121.285 98.0891 121.285H96.1001V123.499ZM107.647 125.065H105.163L104.479 127H103.606L105.901 120.556H106.963L109.222 127H108.313L107.647 125.065ZM107.413 124.372L106.423 121.447L105.37 124.372H107.413ZM113.571 124.066V127H112.752V120.556H117.072V121.285H113.571V123.337H116.649V124.066H113.571ZM124.161 125.065H121.677L120.993 127H120.12L122.415 120.556H123.477L125.736 127H124.827L124.161 125.065ZM123.927 124.372L122.937 121.447L121.884 124.372H123.927Z" fill="white"/>
<path d="M45 68L73.6373 4.73563L94.1974 47.4023H72.1687M99.3374 47.4023V25.3333M99.3374 25.3333V4M99.3374 25.3333H131.646M131.646 25.3333V4M131.646 25.3333V47.4023" stroke="white" stroke-width="4"/>
</svg>
